<svg width="12374" height="2277" viewBox="0 0 12374 2277" fill="none" xmlns="http://www.w3.org/2000/svg">
<path d="M1999.97 713.807C1968.34 595.86 1918.31 490.112 1801.2 435.008C1654.09 362.402 1507.58 385.323 1365.55 383.992C979.658 380.373 593.677 387.649 207.743 386.348C85.2603 385.935 -3.35055 294.71 0.09723 188.136C3.64359 78.5081 96.3249 -6.76166 226.723 0.422801C688.173 25.8447 1149.83 12.2304 1611.38 15.8041C1665.76 16.2246 1719.1 18.819 1772.69 31.2897C2297.25 153.356 2561.6 773.445 2222.14 1246.26C2064.37 1466.01 1839.84 1555.38 1581.65 1570.29C1513.02 1574.26 1443.97 1572.55 1375.15 1570.86L1369.67 1570.72C1251.4 1567.81 1154.86 1476.51 1159.44 1374.18C1163.97 1273.1 1251.88 1195.62 1369.58 1200.55C1478.8 1205.13 1586.25 1188.92 1693.83 1179.61C1885.11 1163.07 2051.09 904.464 1999.97 713.807Z" fill="url(#paint0_linear_445_16)"/>
<path d="M239.544 566.56C372.693 562.944 506.014 565.899 639.26 565.957C867.683 565.979 1079.8 564.78 1291.89 566.414C1437.92 567.539 1528.72 663.971 1522.99 806.916C1518.82 910.835 1432.12 1000.66 1328.37 1003.97C1241.43 1006.75 1154.2 1008.14 1067.38 1003.97C1001.9 1000.82 983.035 1028.04 983.614 1091.75C985.986 1352.76 984.749 1613.8 984.392 1874.83C984.192 2021.6 894.99 2120.86 765.112 2119.99C654.435 2119.26 556.504 2008.72 555.57 1876.67C553.727 1615.66 552.991 1354.59 556.145 1093.61C556.989 1023.76 533.095 999.88 466.586 1003.79C393.407 1008.09 319.797 1004.9 246.376 1004.71C110.761 1004.37 19.8352 928.583 16.5946 813.422C12.3461 662.422 92.6191 570.55 239.544 566.56Z" fill="url(#paint1_linear_445_16)"/>
<path d="M12373.2 760.871L11729.4 2274.68H11391L11626.4 1752.3L11208.9 760.871H11560.2L11797.5 1402.81L12032.9 760.871H12373.2Z" fill="url(#paint2_linear_445_16)"/>
<path d="M10013.8 1272.22C10013.8 1166.76 10033.4 1074.18 10072.6 994.471C10113.1 914.764 10167.7 853.451 10236.4 810.533C10305 767.614 10381.7 746.154 10466.3 746.154C10538.6 746.154 10601.8 760.869 10655.7 790.299C10710.9 819.73 10753.2 858.357 10782.7 906.18V760.869H11097.2V1787.24H10782.7V1641.93C10752 1689.76 10709.1 1728.38 10653.9 1757.81C10599.9 1787.24 10536.8 1801.96 10464.4 1801.96C10381.1 1801.96 10305 1780.5 10236.4 1737.58C10167.7 1693.44 10113.1 1631.51 10072.6 1551.8C10033.4 1470.87 10013.8 1377.67 10013.8 1272.22ZM10782.7 1274.06C10782.7 1195.58 10760.6 1133.65 10716.4 1088.28C10673.5 1042.91 10620.8 1020.22 10558.2 1020.22C10495.7 1020.22 10442.4 1042.91 10398.2 1088.28C10355.3 1132.42 10333.8 1193.74 10333.8 1272.22C10333.8 1350.7 10355.3 1413.24 10398.2 1459.83C10442.4 1505.21 10495.7 1527.89 10558.2 1527.89C10620.8 1527.89 10673.5 1505.21 10716.4 1459.83C10760.6 1414.46 10782.7 1352.54 10782.7 1274.06Z" fill="url(#paint3_linear_445_16)"/>
<path d="M9142.45 906.18C9173.11 858.357 9215.41 819.73 9269.37 790.299C9323.32 760.869 9386.48 746.154 9458.83 746.154C9543.44 746.154 9620.08 767.614 9688.75 810.533C9757.42 853.451 9811.37 914.764 9850.61 994.471C9891.08 1074.18 9911.31 1166.76 9911.31 1272.22C9911.31 1377.67 9891.08 1470.87 9850.61 1551.8C9811.37 1631.51 9757.42 1693.44 9688.75 1737.58C9620.08 1780.5 9543.44 1801.96 9458.83 1801.96C9387.7 1801.96 9324.55 1787.24 9269.37 1757.81C9215.41 1728.38 9173.11 1690.37 9142.45 1643.77V2276.52H8827.92V760.869H9142.45V906.18ZM9591.26 1272.22C9591.26 1193.74 9569.19 1132.42 9525.04 1088.28C9482.12 1042.91 9428.78 1020.22 9365.02 1020.22C9302.48 1020.22 9249.14 1042.91 9204.99 1088.28C9162.07 1133.65 9140.61 1195.58 9140.61 1274.06C9140.61 1352.54 9162.07 1414.46 9204.99 1459.83C9249.14 1505.21 9302.48 1527.89 9365.02 1527.89C9427.56 1527.89 9480.9 1505.21 9525.04 1459.83C9569.19 1413.24 9591.26 1350.7 9591.26 1272.22Z" fill="url(#paint4_linear_445_16)"/>
<path d="M8123.95 1801.96C8023.4 1801.96 7932.66 1780.5 7851.72 1737.58C7772.02 1694.66 7708.87 1633.35 7662.27 1553.64C7616.9 1473.94 7594.21 1380.74 7594.21 1274.06C7594.21 1168.6 7617.51 1076.02 7664.11 996.31C7710.71 915.377 7774.47 853.451 7855.4 810.533C7936.34 767.614 8027.08 746.154 8127.63 746.154C8228.18 746.154 8318.93 767.614 8399.86 810.533C8480.79 853.451 8544.56 915.377 8591.16 996.31C8637.75 1076.02 8661.05 1168.6 8661.05 1274.06C8661.05 1379.51 8637.14 1472.71 8589.32 1553.64C8542.72 1633.35 8478.34 1694.66 8396.18 1737.58C8315.25 1780.5 8224.51 1801.96 8123.95 1801.96ZM8123.95 1529.73C8184.04 1529.73 8234.93 1507.66 8276.62 1463.51C8319.54 1419.37 8341 1356.22 8341 1274.06C8341 1191.9 8320.15 1128.75 8278.46 1084.6C8237.99 1040.46 8187.72 1018.38 8127.63 1018.38C8066.32 1018.38 8015.43 1040.46 7974.96 1084.6C7934.5 1127.52 7914.26 1190.67 7914.26 1274.06C7914.26 1356.22 7933.88 1419.37 7973.12 1463.51C8013.59 1507.66 8063.87 1529.73 8123.95 1529.73Z" fill="url(#paint5_linear_445_16)"/>
<path d="M7481.55 1520.53V1787.24H7321.52C7207.48 1787.24 7118.58 1759.65 7054.81 1704.47C6991.05 1648.06 6959.16 1556.71 6959.16 1430.4V1022.06H6834.09V760.871H6959.16V510.715H7273.7V760.871H7479.71V1022.06H7273.7V1434.08C7273.7 1464.74 7281.06 1486.81 7295.77 1500.3C7310.49 1513.79 7335.01 1520.53 7369.35 1520.53H7481.55Z" fill="url(#paint6_linear_445_16)"/>
<path d="M6301.37 1801.96C6211.85 1801.96 6132.15 1786.63 6062.25 1755.97C5992.35 1725.32 5937.17 1683.63 5896.71 1630.9C5856.24 1576.94 5833.55 1516.85 5828.65 1450.64H6139.5C6143.18 1486.2 6159.74 1515.02 6189.17 1537.09C6218.6 1559.16 6254.77 1570.2 6297.69 1570.2C6336.93 1570.2 6366.97 1562.84 6387.82 1548.12C6409.89 1532.18 6420.93 1511.95 6420.93 1487.42C6420.93 1457.99 6405.6 1436.54 6374.94 1423.05C6344.29 1408.33 6294.62 1392.39 6225.95 1375.22C6152.38 1358.05 6091.07 1340.27 6042.02 1321.88C5992.97 1302.26 5950.66 1272.22 5915.1 1231.75C5879.54 1190.06 5861.76 1134.26 5861.76 1064.37C5861.76 1005.51 5877.7 952.165 5909.58 904.341C5942.69 855.291 5990.51 816.664 6053.05 788.46C6116.82 760.256 6192.23 746.154 6279.3 746.154C6408.05 746.154 6509.22 778.037 6582.79 841.802C6657.6 905.567 6700.51 990.179 6711.55 1095.64H6420.93C6416.02 1060.08 6400.08 1031.87 6373.1 1011.03C6347.35 990.179 6313.02 979.756 6270.1 979.756C6233.31 979.756 6205.11 987.113 6185.49 1001.83C6165.87 1015.32 6156.06 1034.32 6156.06 1058.85C6156.06 1088.28 6171.39 1110.35 6202.04 1125.07C6233.93 1139.78 6282.98 1154.5 6349.19 1169.21C6425.22 1188.83 6487.15 1208.45 6534.97 1228.07C6582.79 1246.47 6624.49 1277.12 6660.05 1320.04C6696.84 1361.73 6715.84 1418.14 6717.07 1489.26C6717.07 1549.35 6699.9 1603.31 6665.57 1651.13C6632.46 1697.73 6584.02 1734.51 6520.26 1761.49C6457.72 1788.47 6384.75 1801.96 6301.37 1801.96Z" fill="url(#paint7_linear_445_16)"/>
<path d="M5657.91 760.871V1787.25H5343.37V1647.45C5311.49 1692.82 5267.96 1729.61 5212.78 1757.82C5158.82 1784.79 5098.73 1798.28 5032.52 1798.28C4954.04 1798.28 4884.75 1781.11 4824.67 1746.78C4764.58 1711.22 4717.98 1660.33 4684.87 1594.11C4651.77 1527.89 4635.21 1450.03 4635.21 1360.51V760.871H4947.91V1318.2C4947.91 1386.87 4965.69 1440.22 5001.25 1478.23C5036.81 1516.24 5084.63 1535.25 5144.72 1535.25C5206.03 1535.25 5254.47 1516.24 5290.03 1478.23C5325.59 1440.22 5343.37 1386.87 5343.37 1318.2V760.871H5657.91Z" fill="url(#paint8_linear_445_16)"/>
<path d="M4172.17 931.933C4208.96 875.525 4254.95 831.38 4310.13 799.497C4365.31 766.388 4426.62 749.834 4494.07 749.834V1082.76H4407.62C4329.14 1082.76 4270.27 1099.93 4231.03 1134.26C4191.79 1167.37 4172.17 1226.23 4172.17 1310.84V1787.24H3857.64V760.87H4172.17V931.933Z" fill="url(#paint9_linear_445_16)"/>
<path d="M3699.78 496V747.995H3357.66V1787.24H3043.12V747.995H2701V496H3699.78Z" fill="url(#paint10_linear_445_16)"/>
<defs>
<linearGradient id="paint0_linear_445_16" x1="1187" y1="0" x2="1187" y2="2120" gradientUnits="userSpaceOnUse">
<stop stop-color="#6F3893"/>
<stop offset="0.495" stop-color="#653A94"/>
<stop offset="1" stop-color="#5D3C95"/>
</linearGradient>
<linearGradient id="paint1_linear_445_16" x1="1187" y1="0" x2="1187" y2="2120" gradientUnits="userSpaceOnUse">
<stop stop-color="#6F3893"/>
<stop offset="0.495" stop-color="#653A94"/>
<stop offset="1" stop-color="#5D3C95"/>
</linearGradient>
<linearGradient id="paint2_linear_445_16" x1="7699.67" y1="-236.68" x2="7699.67" y2="2157.55" gradientUnits="userSpaceOnUse">
<stop stop-color="#6E3995"/>
<stop offset="0.485" stop-color="#553D93"/>
<stop offset="0.745" stop-color="#4C3E95"/>
<stop offset="1" stop-color="#404094"/>
</linearGradient>
<linearGradient id="paint3_linear_445_16" x1="7699.67" y1="-236.682" x2="7699.67" y2="2157.55" gradientUnits="userSpaceOnUse">
<stop stop-color="#6E3995"/>
<stop offset="0.485" stop-color="#553D93"/>
<stop offset="0.745" stop-color="#4C3E95"/>
<stop offset="1" stop-color="#404094"/>
</linearGradient>
<linearGradient id="paint4_linear_445_16" x1="7699.67" y1="-236.682" x2="7699.67" y2="2157.55" gradientUnits="userSpaceOnUse">
<stop stop-color="#6E3995"/>
<stop offset="0.485" stop-color="#553D93"/>
<stop offset="0.745" stop-color="#4C3E95"/>
<stop offset="1" stop-color="#404094"/>
</linearGradient>
<linearGradient id="paint5_linear_445_16" x1="7699.67" y1="-236.682" x2="7699.67" y2="2157.55" gradientUnits="userSpaceOnUse">
<stop stop-color="#6E3995"/>
<stop offset="0.485" stop-color="#553D93"/>
<stop offset="0.745" stop-color="#4C3E95"/>
<stop offset="1" stop-color="#404094"/>
</linearGradient>
<linearGradient id="paint6_linear_445_16" x1="7699.67" y1="-236.681" x2="7699.67" y2="2157.55" gradientUnits="userSpaceOnUse">
<stop stop-color="#6E3995"/>
<stop offset="0.485" stop-color="#553D93"/>
<stop offset="0.745" stop-color="#4C3E95"/>
<stop offset="1" stop-color="#404094"/>
</linearGradient>
<linearGradient id="paint7_linear_445_16" x1="7699.67" y1="-236.682" x2="7699.67" y2="2157.55" gradientUnits="userSpaceOnUse">
<stop stop-color="#6E3995"/>
<stop offset="0.485" stop-color="#553D93"/>
<stop offset="0.745" stop-color="#4C3E95"/>
<stop offset="1" stop-color="#404094"/>
</linearGradient>
<linearGradient id="paint8_linear_445_16" x1="7699.67" y1="-236.68" x2="7699.67" y2="2157.55" gradientUnits="userSpaceOnUse">
<stop stop-color="#6E3995"/>
<stop offset="0.485" stop-color="#553D93"/>
<stop offset="0.745" stop-color="#4C3E95"/>
<stop offset="1" stop-color="#404094"/>
</linearGradient>
<linearGradient id="paint9_linear_445_16" x1="3194.87" y1="83.5846" x2="3194.87" y2="1706.6" gradientUnits="userSpaceOnUse">
<stop stop-color="#6E3995"/>
<stop offset="0.485" stop-color="#553D93"/>
<stop offset="0.745" stop-color="#4C3E95"/>
<stop offset="1" stop-color="#404094"/>
</linearGradient>
<linearGradient id="paint10_linear_445_16" x1="7699.67" y1="-236.68" x2="7699.67" y2="2157.55" gradientUnits="userSpaceOnUse">
<stop offset="0.065" stop-color="#533C94"/>
<stop offset="0.475" stop-color="#4B3F95"/>
<stop offset="1" stop-color="#322FA8"/>
</linearGradient>
</defs>
</svg>
